<?xml version="1.0" encoding="UTF-8" standalone="no"?> <!-- Created with Vectornator for iOS (http://vectornator.io/) --><!DOCTYPE svg PUBLIC "-//W3C//DTD SVG 1.1//EN" "http://www.w3.org/Graphics/SVG/1.1/DTD/svg11.dtd">
<svg height="100%" style="fill-rule:evenodd;clip-rule:evenodd;stroke-linecap:round;stroke-linejoin:round;" xmlns:xlink="http://www.w3.org/1999/xlink" xmlns="http://www.w3.org/2000/svg" xml:space="preserve" width="100%" xmlns:vectornator="http://vectornator.io" version="1.1" viewBox="0 0 1200 400">
<metadata>
<vectornator:setting key="DynamicGuides" value="1"/>
<vectornator:setting key="CMYKEnabledKey" value="0"/>
<vectornator:setting key="Units" value="Points"/>
<vectornator:setting key="GridSpacing" value="36"/>
<vectornator:setting key="SnapToGuides" value="1"/>
<vectornator:setting key="RulersVisible" value="1"/>
</metadata>
<defs/>
<g id="Layer 1" vectornator:layerName="Layer 1">
<g opacity="1">
<g opacity="1">
<path stroke="#ef502e" fill-rule="evenodd" stroke-width="1" d="M218.592+259.049C218.637+262.433+218.814+265.817+218.727+269.2C218.584+274.802+200.049+281.53+200.049+289.232C198.908+289.612+197.613+294.231+197.613+295.187C192.337+296.946+201.159+318.874+207.764+318.874C209.975+325.506+224.461+320.498+228.879+320.498C229.246+319.394+233.964+317.037+234.969+316.031C240.16+310.84+241.195+303.985+241.195+296.541C240.701+296.376+239.29+291.106+238.759+290.044C238.358+289.241+234.498+284.957+234.969+284.359C238.197+280.27+244.444+279.623+244.444+285.983C248.169+287.225+248.161+301.945+248.234+303.85C248.03+303.782+248.03+303.782+247.827+303.714C247.428+312.911+238.193+328.077+227.796+328.077C226.852+330.91+212.367+328.077+208.576+328.077C208.531+327.942+208.574+327.724+208.441+327.671C203.244+325.593+199.902+322.923+195.718+318.738C193.24+316.261+192.19+312.495+190.845+309.805C190.205+308.525+190.839+304.66+189.627+304.256C189.522+298.489+191.387+294.088+191.387+289.232C192.574+288.836+195.064+282.576+196.395+281.246C203.044+274.597+211.62+266.444+218.592+259.049Z" fill="#ef502e" stroke-linecap="round" opacity="1" stroke-linejoin="round"/>
<path stroke="#f05332" fill-rule="evenodd" stroke-width="1" d="M228.337+270.418C232.663+269.632+235.805+277.387+231.044+277.727C226.079+278.082+222.86+271.415+228.337+270.418Z" fill="#f05332" stroke-linecap="round" opacity="1" stroke-linejoin="round"/>
</g>
<path stroke="#010101" stroke-width="11" d="M21.7872+123.335L36.6121+309.339L167.26+298.926C167.236+298.663+167.188+298.413+167.167+298.149C164.572+265.59+187.465+237.187+218.29+234.731C218.763+234.693+219.225+234.706+219.697+234.682L209.629+108.363L21.7872+123.335Z" fill="none" stroke-linecap="round" opacity="1" stroke-linejoin="round"/>
<path stroke="#ef4b28" stroke-width="11" d="M215.112+28.692L85.2635+162.694L179.385+253.899C179.567+253.708+179.723+253.506+179.907+253.316C202.637+229.86+239.082+228.284+261.29+249.804C261.631+250.134+261.925+250.489+262.256+250.826L350.438+159.824L215.112+28.692Z" fill="none" stroke-linecap="round" opacity="1" stroke-linejoin="round"/>
</g>
<g opacity="1">
<path d="M386.115+257.904L367.719+257.904L367.719+105.042L423.345+105.042C437.507+105.042+448.311+108.911+455.757+116.649C463.203+124.387+466.926+135.191+466.926+149.061C466.926+161.471+463.714+171.399+457.29+178.845C450.866+186.291+441.522+190.598+429.258+191.766L468.24+257.904L447.654+257.904L410.424+192.642L386.115+192.642L386.115+257.904ZM422.907+177.093C430.645+177.093+436.668+175.158+440.975+171.289C445.282+167.42+447.435+161.909+447.435+154.755L447.435+143.367C447.435+136.213+445.282+130.701+440.975+126.832C436.668+122.963+430.645+121.029+422.907+121.029L386.115+121.029L386.115+177.093L422.907+177.093Z" opacity="1" fill="#000000"/>
<path d="M552.117+119.934C547.007+119.934+543.43+118.875+541.386+116.758C539.342+114.641+538.32+111.977+538.32+108.765L538.32+105.261C538.32+102.049+539.342+99.3842+541.386+97.2672C543.43+95.1502+547.007+94.0917+552.117+94.0917C557.227+94.0917+560.804+95.1502+562.848+97.2672C564.892+99.3842+565.914+102.049+565.914+105.261L565.914+108.765C565.914+111.977+564.892+114.641+562.848+116.758C560.804+118.875+557.227+119.934+552.117+119.934ZM502.623+243.012L543.357+243.012L543.357+159.792L502.623+159.792L502.623+144.9L560.877+144.9L560.877+243.012L598.983+243.012L598.983+257.904L502.623+257.904L502.623+243.012Z" opacity="1" fill="#000000"/>
<path d="M677.823+260.532C665.997+260.532+655.814+258.524+647.273+254.509C638.732+250.494+631.468+245.129+625.482+238.413L637.308+228.12C642.71+233.814+648.623+238.194+655.047+241.26C661.471+244.326+669.209+245.859+678.261+245.859C687.021+245.859+694.212+244.289+699.833+241.15C705.454+238.011+708.264+233.084+708.264+226.368C708.264+223.448+707.717+221.002+706.622+219.031C705.527+217.06+704.03+215.491+702.132+214.323C700.234+213.155+698.117+212.242+695.781+211.585C693.445+210.928+690.963+210.381+688.335+209.943L670.596+207.315C666.654+206.731+662.384+205.928+657.785+204.906C653.186+203.884+648.988+202.241+645.192+199.978C641.396+197.715+638.221+194.686+635.666+190.89C633.111+187.094+631.833+182.13+631.833+175.998C631.833+170.304+632.965+165.376+635.228+161.215C637.491+157.054+640.666+153.55+644.754+150.703C648.842+147.856+653.66+145.739+659.208+144.352C664.756+142.965+670.815+142.272+677.385+142.272C687.605+142.272+696.475+143.878+703.994+147.09C711.513+150.302+717.973+154.755+723.375+160.449L711.987+171.18C710.673+169.574+709.031+167.931+707.06+166.252C705.089+164.573+702.68+163.04+699.833+161.653C696.986+160.266+693.664+159.135+689.868+158.259C686.072+157.383+681.692+156.945+676.728+156.945C667.822+156.945+660.997+158.478+656.252+161.544C651.507+164.61+649.134+169.063+649.134+174.903C649.134+177.823+649.682+180.268+650.777+182.239C651.872+184.21+653.368+185.78+655.266+186.948C657.164+188.116+659.318+189.028+661.727+189.685C664.136+190.342+666.581+190.89+669.063+191.328L686.802+193.956C690.89+194.54+695.197+195.343+699.723+196.365C704.249+197.387+708.41+199.029+712.206+201.292C716.002+203.555+719.178+206.585+721.733+210.381C724.288+214.177+725.565+219.141+725.565+225.273C725.565+236.515+721.222+245.202+712.535+251.334C703.848+257.466+692.277+260.532+677.823+260.532Z" opacity="1" fill="#000000"/>
<path d="M814.917+119.934C809.807+119.934+806.23+118.875+804.186+116.758C802.142+114.641+801.12+111.977+801.12+108.765L801.12+105.261C801.12+102.049+802.142+99.3842+804.186+97.2672C806.23+95.1502+809.807+94.0917+814.917+94.0917C820.027+94.0917+823.604+95.1502+825.648+97.2672C827.692+99.3842+828.714+102.049+828.714+105.261L828.714+108.765C828.714+111.977+827.692+114.641+825.648+116.758C823.604+118.875+820.027+119.934+814.917+119.934ZM765.423+243.012L806.157+243.012L806.157+159.792L765.423+159.792L765.423+144.9L823.677+144.9L823.677+243.012L861.783+243.012L861.783+257.904L765.423+257.904L765.423+243.012Z" opacity="1" fill="#000000"/>
<path d="M895.071+257.904L895.071+144.9L912.591+144.9L912.591+163.296L913.467+163.296C914.635+160.522+916.095+157.857+917.847+155.302C919.599+152.747+921.753+150.521+924.308+148.623C926.863+146.725+929.892+145.192+933.396+144.024C936.9+142.856+940.988+142.272+945.66+142.272C957.486+142.272+966.976+146.031+974.13+153.55C981.284+161.069+984.861+171.691+984.861+185.415L984.861+257.904L967.341+257.904L967.341+188.481C967.341+178.115+965.078+170.413+960.552+165.376C956.026+160.339+949.383+157.821+940.623+157.821C937.119+157.821+933.688+158.259+930.33+159.135C926.972+160.011+923.979+161.325+921.351+163.077C918.723+164.829+916.606+167.092+915+169.866C913.394+172.64+912.591+175.852+912.591+179.502L912.591+257.904L895.071+257.904Z" opacity="1" fill="#000000"/>
<path d="M1127.87+270.825C1127.87+282.213+1123.12+290.644+1113.63+296.119C1104.14+301.594+1089.91+304.332+1070.93+304.332C1052.68+304.332+1039.57+301.923+1031.62+297.105C1023.66+292.287+1019.68+285.352+1019.68+276.3C1019.68+270.168+1021.29+265.423+1024.5+262.065C1027.71+258.707+1032.24+256.225+1038.08+254.619L1038.08+251.991C1034.87+250.385+1032.38+248.341+1030.63+245.859C1028.88+243.377+1028+240.238+1028+236.442C1028+230.602+1029.94+226.222+1033.81+223.302C1037.68+220.382+1042.53+218.192+1048.37+216.732L1048.37+215.856C1041.36+212.79+1035.92+208.264+1032.06+202.278C1028.19+196.292+1026.25+189.284+1026.25+181.254C1026.25+175.56+1027.27+170.304+1029.32+165.486C1031.36+160.668+1034.32+156.543+1038.19+153.112C1042.06+149.681+1046.69+147.017+1052.09+145.119C1057.5+143.221+1063.48+142.272+1070.05+142.272C1078.52+142.272+1085.97+143.805+1092.39+146.871L1092.39+144.9C1092.39+140.52+1093.41+136.87+1095.46+133.95C1097.5+131.03+1101+129.57+1105.97+129.57L1126.77+129.57L1126.77+144.9L1101.37+144.9L1101.37+152.565C1105.46+156.069+1108.6+160.23+1110.79+165.048C1112.98+169.866+1114.07+175.268+1114.07+181.254C1114.07+186.948+1113.01+192.204+1110.9+197.022C1108.78+201.84+1105.82+205.964+1102.03+209.395C1098.23+212.826+1093.59+215.491+1088.12+217.389C1082.64+219.287+1076.62+220.236+1070.05+220.236C1068.15+220.236+1066.33+220.163+1064.58+220.017C1062.83+219.871+1061.07+219.652+1059.32+219.36C1057.57+219.652+1055.74+220.126+1053.85+220.783C1051.95+221.44+1050.2+222.316+1048.59+223.411C1046.98+224.506+1045.67+225.784+1044.65+227.244C1043.63+228.704+1043.12+230.383+1043.12+232.281C1043.12+235.639+1044.79+237.865+1048.15+238.96C1051.51+240.055+1055.89+240.603+1061.29+240.603L1086.26+240.603C1100.86+240.603+1111.44+243.34+1118.01+248.815C1124.58+254.29+1127.87+261.627+1127.87+270.825ZM1111.44+271.701C1111.44+267.175+1109.62+263.561+1105.97+260.86C1102.32+258.159+1095.97+256.809+1086.92+256.809L1047.71+256.809C1040.12+259.875+1036.33+264.985+1036.33+272.139C1036.33+277.103+1038.3+281.373+1042.24+284.95C1046.18+288.527+1052.75+290.316+1061.95+290.316L1079.03+290.316C1089.25+290.316+1097.21+288.746+1102.9+285.607C1108.6+282.468+1111.44+277.833+1111.44+271.701ZM1070.05+206.658C1078.81+206.658+1085.27+204.614+1089.43+200.526C1093.59+196.438+1095.68+191.036+1095.68+184.32L1095.68+177.969C1095.68+171.253+1093.59+165.887+1089.43+161.872C1085.27+157.857+1078.81+155.85+1070.05+155.85C1061.29+155.85+1054.87+157.857+1050.78+161.872C1046.69+165.887+1044.65+171.253+1044.65+177.969L1044.65+184.32C1044.65+191.036+1046.69+196.438+1050.78+200.526C1054.87+204.614+1061.29+206.658+1070.05+206.658Z" opacity="1" fill="#000000"/>
</g>
</g>
</svg>
