<?xml version="1.0" encoding="UTF-8" standalone="no"?> <!-- Created with Vectornator for iOS (http://vectornator.io/) --><!DOCTYPE svg PUBLIC "-//W3C//DTD SVG 1.1//EN" "http://www.w3.org/Graphics/SVG/1.1/DTD/svg11.dtd">
<svg height="100%" style="fill-rule:evenodd;clip-rule:evenodd;stroke-linecap:round;stroke-linejoin:round;" xmlns:xlink="http://www.w3.org/1999/xlink" xmlns="http://www.w3.org/2000/svg" xml:space="preserve" width="100%" xmlns:vectornator="http://vectornator.io" version="1.1" viewBox="0 0 1200 400">
<metadata>
<vectornator:setting key="DisplayWhiteBackground" value="1"/>
<vectornator:setting key="RulersVisible" value="1"/>
<vectornator:setting key="SnapToEdges" value="0"/>
<vectornator:setting key="Units" value="Pixels"/>
<vectornator:setting key="New" value="0"/>
<vectornator:setting key="DynamicGuides" value="0"/>
<vectornator:setting key="SnapToPoints" value="0"/>
<vectornator:setting key="CMYKEnabledKey" value="0"/>
<vectornator:setting key="SnapToGrid" value="0"/>
<vectornator:setting key="SnapToGuides" value="1"/>
<vectornator:setting key="GridSpacing" value="36"/>
</metadata>
<defs/>
<g id="Layer 1" vectornator:layerName="Layer 1">
<g opacity="1">
<g opacity="1">
<path d="M379.583+201.736L379.583+188.836C379.583+184.636+379.683+180.186+379.883+175.486C380.083+170.786+380.333+166.236+380.633+161.836C380.933+157.436+381.283+153.536+381.683+150.136C382.083+146.736+382.583+144.136+383.183+142.336C385.383+139.136+388.383+136.736+392.183+135.136C395.983+133.536+399.583+132.736+402.983+132.736C408.583+132.736+413.383+134.786+417.383+138.886C421.383+142.986+423.383+150.036+423.383+160.036C423.383+167.036+421.533+173.286+417.833+178.786C414.133+184.286+409.933+188.886+405.233+192.586C400.533+196.286+396.133+199.136+392.033+201.136C387.933+203.136+385.583+204.136+384.983+204.136C381.983+204.136+380.183+203.336+379.583+201.736ZM408.083+115.336C405.883+115.336+402.833+115.686+398.933+116.386C395.033+117.086+390.683+118.236+385.883+119.836C381.083+121.436+375.983+123.486+370.583+125.986C365.183+128.486+359.983+131.536+354.983+135.136C352.383+136.936+351.083+139.536+351.083+142.936C351.083+144.936+351.483+146.386+352.283+147.286C353.083+148.186+353.933+148.836+354.833+149.236C355.733+149.636+356.633+150.086+357.533+150.586C358.433+151.086+358.983+152.136+359.183+153.736C359.783+159.136+360.233+165.686+360.533+173.386C360.833+181.086+360.983+189.136+360.983+197.536L360.983+213.436C360.983+217.036+360.883+222.336+360.683+229.336C360.483+236.336+360.233+243.436+359.933+250.636C359.633+257.836+359.233+264.286+358.733+269.986C358.233+275.686+357.683+279.036+357.083+280.036C355.483+282.236+354.133+284.136+353.033+285.736C351.933+287.336+351.383+288.636+351.383+289.636C351.383+291.036+352.283+292.386+354.083+293.686C355.883+294.986+357.983+296.136+360.383+297.136C362.783+298.136+365.183+298.936+367.583+299.536C369.983+300.136+371.883+300.436+373.283+300.436C375.483+300.436+376.983+299.786+377.783+298.486C378.583+297.186+378.983+295.736+378.983+294.136L378.983+245.236C378.983+240.236+379.033+235.836+379.133+232.036C379.233+228.236+379.383+224.736+379.583+221.536C382.183+221.536+384.533+221.886+386.633+222.586C388.733+223.286+390.783+224.736+392.783+226.936L425.183+262.036C432.183+269.636+437.633+275.836+441.533+280.636C445.433+285.436+448.783+289.536+451.583+292.936C453.183+294.936+454.633+296.186+455.933+296.686C457.233+297.186+458.683+297.436+460.283+297.436L465.083+297.436C466.083+297.436+467.033+297.036+467.933+296.236C468.833+295.436+470.183+294.136+471.983+292.336C473.583+290.736+474.633+289.386+475.133+288.286C475.633+287.186+475.883+285.936+475.883+284.536C475.883+283.736+473.983+281.636+470.183+278.236C466.383+274.836+461.383+270.236+455.183+264.436C448.983+258.636+441.933+251.686+434.033+243.586C426.133+235.486+417.983+226.236+409.583+215.836C408.383+214.236+406.983+213.136+405.383+212.536C403.783+211.936+401.883+211.436+399.683+211.036L399.683+210.436L420.983+200.836C423.583+199.636+426.283+197.836+429.083+195.436C431.883+193.036+434.483+189.986+436.883+186.286C439.283+182.586+441.233+178.186+442.733+173.086C444.233+167.986+444.983+162.236+444.983+155.836C444.983+144.436+441.933+134.836+435.833+127.036C429.733+119.236+420.483+115.336+408.083+115.336Z" opacity="1" fill="#000000"/>
<path d="M513.329+232.765C513.329+244.299+513.366+254.117+513.439+262.22C513.512+270.323+513.621+277.039+513.767+282.368C513.913+287.697+514.169+291.858+514.534+294.851C514.899+297.844+515.373+300.071+515.957+301.531C516.541+302.991+517.235+303.903+518.038+304.268C518.841+304.633+519.753+304.816+520.775+304.816C523.257+304.816+525.046+303.392+526.141+300.545C527.236+297.698+527.783+291.895+527.783+283.135C527.783+256.855+527.966+236.159+528.331+221.048C528.696+205.937+529.17+195.17+529.754+188.746C529.9+186.264+530.302+184.11+530.959+182.285C531.616+180.46+531.944+178.672+531.944+176.92C531.944+176.044+530.922+174.985+528.878+173.744C526.834+172.503+525.009+171.883+523.403+171.883C522.381+171.883+520.958+172.43+519.133+173.525C517.308+174.62+515.519+175.898+513.767+177.358C512.015+178.818+510.482+180.351+509.168+181.957C507.854+183.563+507.197+184.804+507.197+185.68C507.197+186.848+507.453+188.052+507.964+189.293C508.475+190.534+509.46+191.958+510.92+193.564C511.796+194.586+512.307+195.79+512.453+197.177C512.599+198.564+512.672+200.28+512.672+202.324C512.672+206.12+512.782+210.208+513.001+214.588C513.22+218.968+513.329+225.027+513.329+232.765Z" opacity="1" fill="#000000"/>
<path d="M581.21+288.136C581.21+290.136+581.41+291.986+581.81+293.686C582.21+295.386+582.71+297.136+583.31+298.936C583.71+299.936+584.96+300.986+587.06+302.086C589.16+303.186+591.56+304.236+594.26+305.236C596.96+306.236+599.71+307.036+602.51+307.636C605.31+308.236+607.61+308.536+609.41+308.536C616.61+308.536+622.46+306.436+626.96+302.236C631.46+298.036+635.06+293.286+637.76+287.986C640.46+282.686+642.31+277.536+643.31+272.536C644.31+267.536+644.81+264.236+644.81+262.636C644.81+253.836+643.11+244.586+639.71+234.886C636.31+225.186+632.56+215.786+628.46+206.686C624.36+197.586+620.61+189.086+617.21+181.186C613.81+173.286+612.11+166.736+612.11+161.536C612.11+153.136+615.01+146.086+620.81+140.386C626.61+134.686+636.11+131.636+649.31+131.236C654.91+131.036+658.46+130.336+659.96+129.136C661.46+127.936+662.21+125.336+662.21+121.336C662.21+119.736+661.21+118.386+659.21+117.286C657.21+116.186+654.91+115.286+652.31+114.586C649.71+113.886+647.06+113.386+644.36+113.086C641.66+112.786+639.61+112.636+638.21+112.636C631.81+112.636+625.66+114.986+619.76+119.686C613.86+124.386+608.66+129.936+604.16+136.336C599.66+142.736+596.06+149.086+593.36+155.386C590.66+161.686+589.31+166.536+589.31+169.936C589.31+173.736+590.26+178.336+592.16+183.736C594.06+189.136+596.41+194.886+599.21+200.986C602.01+207.086+605.06+213.386+608.36+219.886C611.66+226.386+614.71+232.686+617.51+238.786C620.31+244.886+622.66+250.636+624.56+256.036C626.46+261.436+627.41+266.136+627.41+270.136C627.41+274.536+625.76+278.586+622.46+282.286C619.16+285.986+614.81+287.836+609.41+287.836C603.81+287.836+599.11+286.886+595.31+284.986C591.51+283.086+588.21+282.136+585.41+282.136C584.41+282.136+583.46+282.586+582.56+283.486C581.66+284.386+581.21+285.936+581.21+288.136Z" opacity="1" fill="#000000"/>
<path d="M713.81+207.736C713.81+223.536+713.86+236.986+713.96+248.086C714.06+259.186+714.21+268.386+714.41+275.686C714.61+282.986+714.96+288.686+715.46+292.786C715.96+296.886+716.61+299.936+717.41+301.936C718.21+303.936+719.16+305.186+720.26+305.686C721.36+306.186+722.61+306.436+724.01+306.436C727.41+306.436+729.86+304.486+731.36+300.586C732.86+296.686+733.61+288.736+733.61+276.736C733.61+240.736+733.86+212.386+734.36+191.686C734.86+170.986+735.51+156.236+736.31+147.436C736.51+144.036+737.06+141.086+737.96+138.586C738.86+136.086+739.31+133.636+739.31+131.236C739.31+130.036+737.91+128.586+735.11+126.886C732.31+125.186+729.81+124.336+727.61+124.336C726.21+124.336+724.26+125.086+721.76+126.586C719.26+128.086+716.81+129.836+714.41+131.836C712.01+133.836+709.91+135.936+708.11+138.136C706.31+140.336+705.41+142.036+705.41+143.236C705.41+144.836+705.76+146.486+706.46+148.186C707.16+149.886+708.51+151.836+710.51+154.036C711.71+155.436+712.41+157.086+712.61+158.986C712.81+160.886+712.91+163.236+712.91+166.036C712.91+171.236+713.06+176.836+713.36+182.836C713.66+188.836+713.81+197.136+713.81+207.736Z" opacity="1" fill="#000000"/>
<path d="M819.41+190.036L815.81+264.136C815.41+270.136+814.61+275.036+813.41+278.836C812.21+282.636+810.96+285.686+809.66+287.986C808.36+290.286+807.21+292.186+806.21+293.686C805.21+295.186+804.71+296.736+804.71+298.336C804.71+301.136+806.61+302.536+810.41+302.536C812.61+302.536+814.96+302.236+817.46+301.636C819.96+301.036+823.61+300.136+828.41+298.936C830.61+298.336+832.06+297.186+832.76+295.486C833.46+293.786+833.81+292.136+833.81+290.536C833.81+288.136+833.71+284.686+833.51+280.186C833.31+275.686+833.21+271.236+833.21+266.836C833.21+261.836+833.26+255.686+833.36+248.386C833.46+241.086+833.56+233.236+833.66+224.836C833.76+216.436+834.01+207.786+834.41+198.886C834.81+189.986+835.31+181.336+835.91+172.936C838.91+176.336+843.36+181.036+849.26+187.036C855.16+193.036+861.76+199.886+869.06+207.586C876.36+215.286+884.16+223.586+892.46+232.486C900.76+241.386+908.81+250.436+916.61+259.636C920.21+263.836+922.96+268.036+924.86+272.236C926.76+276.436+928.21+280.236+929.21+283.636C930.21+287.036+931.06+289.836+931.76+292.036C932.46+294.236+933.31+295.336+934.31+295.336C935.11+295.336+936.61+294.686+938.81+293.386C941.01+292.086+943.26+290.486+945.56+288.586C947.86+286.686+949.91+284.586+951.71+282.286C953.51+279.986+954.41+277.836+954.41+275.836C954.41+269.436+954.31+263.386+954.11+257.686C953.91+251.986+953.81+246.636+953.81+241.636C953.81+225.236+954.31+211.186+955.31+199.486C956.31+187.786+957.41+178.036+958.61+170.236C959.81+162.436+960.91+156.236+961.91+151.636C962.91+147.036+963.41+143.736+963.41+141.736C963.41+139.536+962.91+137.586+961.91+135.886C960.91+134.186+959.01+133.336+956.21+133.336C954.21+133.336+952.01+133.436+949.61+133.636C947.21+133.836+944.91+134.236+942.71+134.836C940.51+135.436+938.66+136.286+937.16+137.386C935.66+138.486+934.81+139.936+934.61+141.736C934.61+143.136+934.91+145.036+935.51+147.436C936.11+149.836+936.71+153.036+937.31+157.036C937.91+161.036+938.51+165.936+939.11+171.736C939.71+177.536+940.01+184.336+940.01+192.136C940.01+201.936+939.66+211.486+938.96+220.786C938.26+230.086+937.11+239.836+935.51+250.036C932.71+247.636+927.46+242.436+919.76+234.436C912.06+226.436+902.96+216.736+892.46+205.336C881.96+193.936+870.61+181.336+858.41+167.536C846.21+153.736+834.31+139.936+822.71+126.136C821.11+124.136+819.76+122.786+818.66+122.086C817.56+121.386+816.41+121.036+815.21+121.036C814.21+121.036+813.16+121.236+812.06+121.636C810.96+122.036+809.61+122.936+808.01+124.336L797.21+133.036C795.01+134.636+793.91+136.136+793.91+137.536C793.91+140.136+795.26+141.936+797.96+142.936C800.66+143.936+803.66+145.086+806.96+146.386C810.26+147.686+813.26+149.836+815.96+152.836C818.66+155.836+820.01+160.736+820.01+167.536C820.01+171.336+819.96+175.086+819.86+178.786C819.76+182.486+819.61+186.236+819.41+190.036Z" opacity="1" fill="#000000"/>
<path d="M1133.51+242.536L1131.11+260.536C1130.71+262.936+1129.56+265.336+1127.66+267.736C1125.76+270.136+1123.16+272.336+1119.86+274.336C1116.56+276.336+1112.66+277.986+1108.16+279.286C1103.66+280.586+1098.71+281.236+1093.31+281.236C1087.11+281.236+1081.31+280.536+1075.91+279.136C1070.51+277.736+1065.76+275.186+1061.66+271.486C1057.56+267.786+1054.36+262.536+1052.06+255.736C1049.76+248.936+1048.61+240.136+1048.61+229.336C1048.61+219.736+1050.51+209.586+1054.31+198.886C1058.11+188.186+1063.31+178.336+1069.91+169.336C1076.51+160.336+1084.16+152.886+1092.86+146.986C1101.56+141.086+1110.81+138.136+1120.61+138.136C1123.21+138.136+1125.41+138.386+1127.21+138.886C1129.01+139.386+1130.91+140.536+1132.91+142.336C1137.31+146.336+1140.26+148.936+1141.76+150.136C1143.26+151.336+1144.71+151.936+1146.11+151.936C1147.11+151.936+1148.41+151.586+1150.01+150.886C1151.61+150.186+1153.21+149.286+1154.81+148.186C1156.41+147.086+1157.81+145.786+1159.01+144.286C1160.21+142.786+1160.81+141.336+1160.81+139.936C1160.81+134.536+1157.81+130.586+1151.81+128.086C1145.81+125.586+1137.11+124.336+1125.71+124.336C1108.51+124.336+1093.71+127.286+1081.31+133.186C1068.91+139.086+1058.66+146.736+1050.56+156.136C1042.46+165.536+1036.51+176.236+1032.71+188.236C1028.91+200.236+1027.01+212.436+1027.01+224.836C1027.01+231.036+1028.06+238.236+1030.16+246.436C1032.26+254.636+1035.91+262.486+1041.11+269.986C1046.31+277.486+1053.36+283.836+1062.26+289.036C1071.16+294.236+1082.51+296.836+1096.31+296.836C1099.11+296.836+1102.11+296.636+1105.31+296.236C1108.51+295.836+1111.51+295.436+1114.31+295.036C1117.11+294.636+1119.56+294.236+1121.66+293.836C1123.76+293.436+1125.21+293.236+1126.01+293.236C1131.21+293.236+1134.21+295.836+1135.01+301.036C1135.81+306.236+1136.56+310.436+1137.26+313.636C1137.96+316.836+1138.71+319.286+1139.51+320.986C1140.31+322.686+1141.11+323.836+1141.91+324.436C1142.71+325.036+1143.71+325.336+1144.91+325.336C1148.51+325.336+1150.86+324.736+1151.96+323.536C1153.06+322.336+1153.61+320.336+1153.61+317.536C1153.61+311.736+1153.16+304.686+1152.26+296.386C1151.36+288.086+1150.91+277.236+1150.91+263.836C1150.91+257.436+1150.86+252.486+1150.76+248.986C1150.66+245.486+1150.36+242.886+1149.86+241.186C1149.36+239.486+1148.71+238.436+1147.91+238.036C1147.11+237.636+1146.11+237.436+1144.91+237.436C1140.51+237.436+1137.61+237.836+1136.21+238.636C1134.81+239.436+1133.91+240.736+1133.51+242.536Z" opacity="1" fill="#000000"/>
</g>
<g opacity="1">
<path stroke="#ef502e" stroke-width="1" d="M518.634+70.1064C518.696+74.7773+518.941+79.4492+518.821+84.1189C518.623+91.8508+493.038+101.139+493.038+111.77C491.463+112.295+489.675+118.671+489.675+119.991C482.393+122.418+494.57+152.687+503.688+152.687C506.739+161.842+526.736+154.929+532.834+154.929C533.341+153.405+539.853+150.151+541.241+148.763C548.406+141.598+549.835+132.135+549.835+121.859C549.153+121.632+547.205+114.357+546.472+112.891C545.918+111.782+540.59+105.869+541.241+105.044C545.697+99.3994+554.319+98.506+554.319+107.286C559.461+109+559.45+129.319+559.551+131.948C559.27+131.855+559.27+131.855+558.99+131.761C558.438+144.456+545.691+165.391+531.339+165.391C530.036+169.301+510.041+165.391+504.809+165.391C504.746+165.205+504.805+164.904+504.622+164.831C497.448+161.962+492.835+158.276+487.059+152.5C483.639+149.08+482.19+143.882+480.333+140.169C479.45+138.402+480.324+133.066+478.652+132.509C478.507+124.548+481.081+118.473+481.081+111.77C482.72+111.224+486.157+102.583+487.994+100.747C497.172+91.5686+509.01+80.3144+518.634+70.1064Z" fill="#ef502e" stroke-linecap="round" opacity="1" stroke-linejoin="round"/>
<path stroke="#f05332" stroke-width="1" d="M532.086+85.8004C538.057+84.7144+542.394+95.4201+535.823+95.8894C528.969+96.379+524.526+87.1756+532.086+85.8004Z" fill="#f05332" stroke-linecap="round" opacity="1" stroke-linejoin="round"/>
</g>
<path stroke="#010101" stroke-width="8" d="M29.9308+108.29L29.9308+294.884L160.993+294.884C160.99+294.62+160.962+294.367+160.962+294.102C160.962+261.44+186.039+234.946+216.962+234.946C217.437+234.946+217.896+234.996+218.368+235.009L218.368+108.29L29.9308+108.29Z" fill="none" stroke-linecap="round" opacity="1" stroke-linejoin="round"/>
<path d="M207.819+287.089C211.151+280.861+218.874+278.499+225.068+281.814C231.262+285.128+233.582+292.863+230.25+299.091C226.917+305.319+219.195+307.681+213.001+304.367C206.806+301.053+204.486+293.317+207.819+287.089Z" opacity="1" fill="#0e0d0d"/>
<path stroke="#ef4b28" stroke-width="8" d="M210.671+29.7039L81.3479+164.213L175.826+255.049C176.007+254.857+176.162+254.655+176.345+254.464C198.983+230.919+235.422+229.201+257.714+250.633C258.056+250.962+258.352+251.316+258.684+251.652L346.509+160.305L210.671+29.7039Z" fill="none" stroke-linecap="round" opacity="1" stroke-linejoin="round"/>
</g>
</g>
</svg>
